<!-- icon666.com - MILLIONS OF FREE VECTOR ICONS --><svg id="Layer_5" enable-background="new 0 0 64 64" viewBox="0 0 64 64" xmlns="http://www.w3.org/2000/svg"><g><path d="m41 7v6h6v-6zm4 4h-2v-2h2z"></path><path d="m25 7v6h6v-6zm4 4h-2v-2h2z"></path><path d="m22 27h-18c-.551 0-1 .449-1 1v23h3c.551 0 1-.448 1-1v-4.277c-.595-.347-1-.985-1-1.723 0-1.105.895-2 2-2s2 .895 2 2c0 .738-.405 1.376-1 1.723v4.277c0 1.654-1.346 3-3 3h-3v8h20v-8h-3c-1.654 0-3-1.346-3-3v-4.277c-.595-.346-1-.984-1-1.723 0-1.105.895-2 2-2s2 .895 2 2c0 .738-.405 1.376-1 1.723v4.277c0 .552.449 1 1 1h3v-23c0-.551-.449-1-1-1zm-2 11h-14v-8h14z"></path><path d="m49 7v6h6v-6zm4 4h-2v-2h2z"></path><path d="m33 7v6h6v-6zm4 4h-2v-2h2z"></path><path d="m60 27h-18c-.551 0-1 .449-1 1v23h3c.551 0 1-.448 1-1v-4.277c-.595-.346-1-.984-1-1.723 0-1.105.895-2 2-2s2 .895 2 2c0 .738-.405 1.376-1 1.723v4.277c0 1.654-1.346 3-3 3h-3v8h20v-8h-3c-1.654 0-3-1.346-3-3v-4.277c-.595-.346-1-.984-1-1.723 0-1.105.895-2 2-2s2 .895 2 2c0 .738-.405 1.376-1 1.723v4.277c0 .552.449 1 1 1h3v-23c0-.551-.449-1-1-1zm-2 11h-14v-8h14z"></path><path d="m9 7v6h6v-6zm4 4h-2v-2h2z"></path><path d="m60.613 7h-3.613v6h1.613z"></path><path d="m17 7v6h6v-6zm4 4h-2v-2h2z"></path><path d="m6.721 17h50.558l.667-2h-51.892z"></path><path d="m5.387 13h1.613v-6h-3.613z"></path><path d="m3 3h58v2h-58z"></path><path d="m29 19h6v42h-6z"></path></g></svg>